<mxfile host="app.diagrams.net" modified="2021-02-02T06:43:48.066Z" agent="5.0 (X11; Linux x86_64) AppleWebKit/537.36 (KHTML, like Gecko) Chrome/88.0.4324.96 Safari/537.36" etag="1eCoc3a6GlO23TcooAx-" version="14.2.4" type="github">
  <diagram id="dn0u-Jz7vyVdXdJEjy57" name="Page-1">
    <mxGraphModel dx="1350" dy="806" grid="1" gridSize="10" guides="1" tooltips="1" connect="1" arrows="1" fold="1" page="1" pageScale="1" pageWidth="850" pageHeight="1100" math="0" shadow="0">
      <root>
        <mxCell id="0" />
        <mxCell id="1" parent="0" />
        <mxCell id="RO-FK-3FN5f6lJKPRijw-6" style="edgeStyle=orthogonalEdgeStyle;shape=link;rounded=0;orthogonalLoop=1;jettySize=auto;html=1;exitX=0.5;exitY=0;exitDx=0;exitDy=0;entryX=0.025;entryY=0.385;entryDx=0;entryDy=0;entryPerimeter=0;" edge="1" parent="1" source="RO-FK-3FN5f6lJKPRijw-1" target="RO-FK-3FN5f6lJKPRijw-3">
          <mxGeometry relative="1" as="geometry" />
        </mxCell>
        <mxCell id="RO-FK-3FN5f6lJKPRijw-1" value="&lt;b&gt;Device 1&lt;/b&gt;" style="rounded=0;whiteSpace=wrap;html=1;direction=south;fillColor=#f5f5f5;strokeColor=#666666;fontColor=#333333;" vertex="1" parent="1">
          <mxGeometry x="280" y="320" width="80" height="160" as="geometry" />
        </mxCell>
        <mxCell id="RO-FK-3FN5f6lJKPRijw-5" style="edgeStyle=orthogonalEdgeStyle;shape=link;rounded=0;orthogonalLoop=1;jettySize=auto;html=1;exitX=0.5;exitY=0;exitDx=0;exitDy=0;entryX=0.5;entryY=1;entryDx=0;entryDy=0;" edge="1" parent="1" source="RO-FK-3FN5f6lJKPRijw-2" target="RO-FK-3FN5f6lJKPRijw-1">
          <mxGeometry relative="1" as="geometry" />
        </mxCell>
        <mxCell id="RO-FK-3FN5f6lJKPRijw-2" value="&lt;b&gt;Device 2&lt;/b&gt;" style="rounded=0;whiteSpace=wrap;html=1;direction=south;fillColor=#dae8fc;strokeColor=#6c8ebf;" vertex="1" parent="1">
          <mxGeometry x="120" y="320" width="80" height="160" as="geometry" />
        </mxCell>
        <mxCell id="RO-FK-3FN5f6lJKPRijw-7" style="edgeStyle=orthogonalEdgeStyle;rounded=0;orthogonalLoop=1;jettySize=auto;html=1;exitX=0.5;exitY=0;exitDx=0;exitDy=0;exitPerimeter=0;entryX=0.5;entryY=0;entryDx=0;entryDy=0;" edge="1" parent="1" source="RO-FK-3FN5f6lJKPRijw-3" target="RO-FK-3FN5f6lJKPRijw-4">
          <mxGeometry relative="1" as="geometry" />
        </mxCell>
        <mxCell id="RO-FK-3FN5f6lJKPRijw-3" value="&lt;b&gt;FFPLAY&lt;br&gt;SERVER&lt;/b&gt;" style="shape=cylinder3;whiteSpace=wrap;html=1;boundedLbl=1;backgroundOutline=1;size=15;fillColor=#fff2cc;strokeColor=#d6b656;" vertex="1" parent="1">
          <mxGeometry x="480" y="350" width="80" height="130" as="geometry" />
        </mxCell>
        <mxCell id="RO-FK-3FN5f6lJKPRijw-4" value="&lt;b&gt;Speaker&lt;/b&gt;" style="shape=trapezoid;perimeter=trapezoidPerimeter;whiteSpace=wrap;html=1;fixedSize=1;direction=west;fillColor=#e1d5e7;strokeColor=#9673a6;" vertex="1" parent="1">
          <mxGeometry x="460" y="220" width="120" height="60" as="geometry" />
        </mxCell>
        <mxCell id="RO-FK-3FN5f6lJKPRijw-8" value="&lt;b&gt;&lt;font style=&quot;font-size: 13px&quot;&gt;WIreless connection&lt;/font&gt;&lt;/b&gt;" style="text;html=1;strokeColor=none;fillColor=none;align=center;verticalAlign=middle;whiteSpace=wrap;rounded=0;" vertex="1" parent="1">
          <mxGeometry x="400" y="370" width="40" height="20" as="geometry" />
        </mxCell>
      </root>
    </mxGraphModel>
  </diagram>
</mxfile>
